#Comment line ignore any data following # character 
#Hierarchical Translation and Rotation (.htr) file 
[Header]	
#Header keywords are followed by a single value 
FileType HTR		#Single word string
DataType HTRS		#Translation followed by rotation and scale data
FileVersion 1		#integer
NumSegments 84		#integer
NumFrames 2		#integer
DataFrameRate 30		#integer, data frame rate in this file
EulerRotationOrder ZYX
CalibrationUnits mm
RotationUnits Degrees
GlobalAxisofGravity Y
BoneLengthAxis Y
ScaleFactor 1.00
[SegmentNames&Hierarchy]
#CHILD	PARENT
MASTER GLOBAL
root MASTER
chest root
L_mid_tent01 root
R_mid_tent01 root
spine01 root
Bip01_Neck chest
L_humerus chest
R_humerus chest
weapon_bone chest
Bip01_Head Bip01_Neck
eye_left_bone Bip01_Head
eye_right_bone Bip01_Head
L_forearm L_humerus
L_front_hand L_forearm
L_weapon_bone L_forearm
L_front_hand01_01 L_front_hand
L_front_hand02_01 L_front_hand
L_front_hand03_01 L_front_hand
L_front_hand01_02 L_front_hand01_01
L_front_hand02_02 L_front_hand02_01
L_front_hand03_02 L_front_hand03_01
R_forearm R_humerus
R_front_hand R_forearm
R_weapon_bone R_forearm
R_front_hand01_01 R_front_hand
R_front_hand02_01 R_front_hand
R_front_hand03_01 R_front_hand
R_front_hand01_02 R_front_hand01_01
R_front_hand02_02 R_front_hand02_01
R_front_hand03_02 R_front_hand03_01
null_rope01_connect L_mid_tent01
Rope1_Seg01 null_rope01_connect
Rope1_Seg02 Rope1_Seg01
Rope1_Seg03 Rope1_Seg02
Rope1_Seg04 Rope1_Seg03
Rope1_Seg05 Rope1_Seg04
Rope1_Seg06 Rope1_Seg05
Rope1_Seg07 Rope1_Seg06
Rope1_Seg09 Rope1_Seg07
L_mid_hand01 Rope1_Seg09
L_mid_hand02 Rope1_Seg09
L_mid_hand03 Rope1_Seg09
null_rope02_connect R_mid_tent01
Rope2_Seg01 null_rope02_connect
Rope2_Seg02 Rope2_Seg01
Rope2_Seg03 Rope2_Seg02
Rope2_Seg04 Rope2_Seg03
Rope2_Seg05 Rope2_Seg04
Rope2_Seg06 Rope2_Seg05
Rope2_Seg07 Rope2_Seg06
Rope2_Seg09 Rope2_Seg07
R_mid_hand01 Rope2_Seg09
R_mid_hand02 Rope2_Seg09
R_mid_hand03 Rope2_Seg09
spine02 spine01
spine03 spine02
pelvis spine03
null_rope03_connect pelvis
null_rope04_connect pelvis
Rope3_Seg01 null_rope03_connect
Rope3_Seg02 Rope3_Seg01
Rope3_Seg03 Rope3_Seg02
Rope3_Seg04 Rope3_Seg03
Rope3_Seg05 Rope3_Seg04
Rope3_Seg06 Rope3_Seg05
Rope3_Seg07 Rope3_Seg06
Rope3_Seg08 Rope3_Seg07
Rope3_Seg09 Rope3_Seg08
R_rear_hand01 Rope3_Seg09
R_rear_hand02 Rope3_Seg09
R_rear_hand03 Rope3_Seg09
Rope4_Seg01 null_rope04_connect
Rope4_Seg02 Rope4_Seg01
Rope4_Seg03 Rope4_Seg02
Rope4_Seg04 Rope4_Seg03
Rope4_Seg05 Rope4_Seg04
Rope4_Seg06 Rope4_Seg05
Rope4_Seg07 Rope4_Seg06
Rope4_Seg08 Rope4_Seg07
Rope4_Seg09 Rope4_Seg08
L_rear_hand01 Rope4_Seg09
L_rear_hand02 Rope4_Seg09
L_rear_hand03 Rope4_Seg09
[BasePosition]
#SegmentName Tx, Ty, Tz, Rx, Ry, Rz, BoneLength
MASTER 0.000000 0.000000 0.000000 -90.000000 0.000000 0.000000 10.000000 
root 0.000000 0.000000 0.000000 0.000000 0.000000 0.000000 10.000000 
chest 0.000000 0.000000 0.000000 0.000000 0.000000 0.000000 10.000000 
L_mid_tent01 0.000000 0.000000 0.000000 0.000000 0.000000 0.000000 10.000000 
R_mid_tent01 0.000000 0.000000 0.000000 0.000000 0.000000 0.000000 10.000000 
spine01 0.000000 0.000000 0.000000 0.000000 0.000000 0.000000 10.000000 
Bip01_Neck 0.000000 0.000000 0.000000 0.000000 0.000000 0.000000 10.000000 
L_humerus 0.000000 0.000000 0.000000 0.000000 0.000000 0.000000 10.000000 
R_humerus 0.000000 0.000000 0.000000 0.000000 0.000000 0.000000 10.000000 
weapon_bone 0.000000 0.000000 0.000000 0.000000 0.000000 0.000000 10.000000 
Bip01_Head 0.000000 0.000000 0.000000 0.000000 0.000000 0.000000 10.000000 
eye_left_bone 0.000000 0.000000 0.000000 0.000000 0.000000 0.000000 10.000000 
eye_right_bone 0.000000 0.000000 0.000000 0.000000 0.000000 0.000000 10.000000 
L_forearm 0.000000 0.000000 0.000000 0.000000 0.000000 0.000000 10.000000 
L_front_hand 0.000000 0.000000 0.000000 0.000000 0.000000 0.000000 10.000000 
L_weapon_bone 0.000000 0.000000 0.000000 0.000000 0.000000 0.000000 10.000000 
L_front_hand01_01 0.000000 0.000000 0.000000 0.000000 0.000000 0.000000 10.000000 
L_front_hand02_01 0.000000 0.000000 0.000000 0.000000 0.000000 0.000000 10.000000 
L_front_hand03_01 0.000000 0.000000 0.000000 0.000000 0.000000 0.000000 10.000000 
L_front_hand01_02 0.000000 0.000000 0.000000 0.000000 0.000000 0.000000 10.000000 
L_front_hand02_02 0.000000 0.000000 0.000000 0.000000 0.000000 0.000000 10.000000 
L_front_hand03_02 0.000000 0.000000 0.000000 0.000000 0.000000 0.000000 10.000000 
R_forearm 0.000000 0.000000 0.000000 0.000000 0.000000 0.000000 10.000000 
R_front_hand 0.000000 0.000000 0.000000 0.000000 0.000000 0.000000 10.000000 
R_weapon_bone 0.000000 0.000000 0.000000 0.000000 0.000000 0.000000 10.000000 
R_front_hand01_01 0.000000 0.000000 0.000000 0.000000 0.000000 0.000000 10.000000 
R_front_hand02_01 0.000000 0.000000 0.000000 0.000000 0.000000 0.000000 10.000000 
R_front_hand03_01 0.000000 0.000000 0.000000 0.000000 0.000000 0.000000 10.000000 
R_front_hand01_02 0.000000 0.000000 0.000000 0.000000 0.000000 0.000000 10.000000 
R_front_hand02_02 0.000000 0.000000 0.000000 0.000000 0.000000 0.000000 10.000000 
R_front_hand03_02 0.000000 0.000000 0.000000 0.000000 0.000000 0.000000 10.000000 
null_rope01_connect 0.000000 0.000000 0.000000 0.000000 0.000000 0.000000 10.000000 
Rope1_Seg01 0.000000 0.000000 0.000000 0.000000 0.000000 0.000000 10.000000 
Rope1_Seg02 0.000000 0.000000 0.000000 0.000000 0.000000 0.000000 10.000000 
Rope1_Seg03 0.000000 0.000000 0.000000 0.000000 0.000000 0.000000 10.000000 
Rope1_Seg04 0.000000 0.000000 0.000000 0.000000 0.000000 0.000000 10.000000 
Rope1_Seg05 0.000000 0.000000 0.000000 0.000000 0.000000 0.000000 10.000000 
Rope1_Seg06 0.000000 0.000000 0.000000 0.000000 0.000000 0.000000 10.000000 
Rope1_Seg07 0.000000 0.000000 0.000000 0.000000 0.000000 0.000000 10.000000 
Rope1_Seg09 0.000000 0.000000 0.000000 0.000000 0.000000 0.000000 10.000000 
L_mid_hand01 0.000000 0.000000 0.000000 0.000000 0.000000 0.000000 10.000000 
L_mid_hand02 0.000000 0.000000 0.000000 0.000000 0.000000 0.000000 10.000000 
L_mid_hand03 0.000000 0.000000 0.000000 0.000000 0.000000 0.000000 10.000000 
null_rope02_connect 0.000000 0.000000 0.000000 0.000000 0.000000 0.000000 10.000000 
Rope2_Seg01 0.000000 0.000000 0.000000 0.000000 0.000000 0.000000 10.000000 
Rope2_Seg02 0.000000 0.000000 0.000000 0.000000 0.000000 0.000000 10.000000 
Rope2_Seg03 0.000000 0.000000 0.000000 0.000000 0.000000 0.000000 10.000000 
Rope2_Seg04 0.000000 0.000000 0.000000 0.000000 0.000000 0.000000 10.000000 
Rope2_Seg05 0.000000 0.000000 0.000000 0.000000 0.000000 0.000000 10.000000 
Rope2_Seg06 0.000000 0.000000 0.000000 0.000000 0.000000 0.000000 10.000000 
Rope2_Seg07 0.000000 0.000000 0.000000 0.000000 0.000000 0.000000 10.000000 
Rope2_Seg09 0.000000 0.000000 0.000000 0.000000 0.000000 0.000000 10.000000 
R_mid_hand01 0.000000 0.000000 0.000000 0.000000 0.000000 0.000000 10.000000 
R_mid_hand02 0.000000 0.000000 0.000000 0.000000 0.000000 0.000000 10.000000 
R_mid_hand03 0.000000 0.000000 0.000000 0.000000 0.000000 0.000000 10.000000 
spine02 0.000000 0.000000 0.000000 0.000000 0.000000 0.000000 10.000000 
spine03 0.000000 0.000000 0.000000 0.000000 0.000000 0.000000 10.000000 
pelvis 0.000000 0.000000 0.000000 0.000000 0.000000 0.000000 10.000000 
null_rope03_connect 0.000000 0.000000 0.000000 0.000000 0.000000 0.000000 10.000000 
null_rope04_connect 0.000000 0.000000 0.000000 0.000000 0.000000 0.000000 10.000000 
Rope3_Seg01 0.000000 0.000000 0.000000 0.000000 0.000000 0.000000 10.000000 
Rope3_Seg02 0.000000 0.000000 0.000000 0.000000 0.000000 0.000000 10.000000 
Rope3_Seg03 0.000000 0.000000 0.000000 0.000000 0.000000 0.000000 10.000000 
Rope3_Seg04 0.000000 0.000000 0.000000 0.000000 0.000000 0.000000 10.000000 
Rope3_Seg05 0.000000 0.000000 0.000000 0.000000 0.000000 0.000000 10.000000 
Rope3_Seg06 0.000000 0.000000 0.000000 0.000000 0.000000 0.000000 10.000000 
Rope3_Seg07 0.000000 0.000000 0.000000 0.000000 0.000000 0.000000 10.000000 
Rope3_Seg08 0.000000 0.000000 0.000000 0.000000 0.000000 0.000000 10.000000 
Rope3_Seg09 0.000000 0.000000 0.000000 0.000000 0.000000 0.000000 10.000000 
R_rear_hand01 0.000000 0.000000 0.000000 0.000000 0.000000 0.000000 10.000000 
R_rear_hand02 0.000000 0.000000 0.000000 0.000000 0.000000 0.000000 10.000000 
R_rear_hand03 0.000000 0.000000 0.000000 0.000000 0.000000 0.000000 10.000000 
Rope4_Seg01 0.000000 0.000000 0.000000 0.000000 0.000000 0.000000 10.000000 
Rope4_Seg02 0.000000 0.000000 0.000000 0.000000 0.000000 0.000000 10.000000 
Rope4_Seg03 0.000000 0.000000 0.000000 0.000000 0.000000 0.000000 10.000000 
Rope4_Seg04 0.000000 0.000000 0.000000 0.000000 0.000000 0.000000 10.000000 
Rope4_Seg05 0.000000 0.000000 0.000000 0.000000 0.000000 0.000000 10.000000 
Rope4_Seg06 0.000000 0.000000 0.000000 0.000000 0.000000 0.000000 10.000000 
Rope4_Seg07 0.000000 0.000000 0.000000 0.000000 0.000000 0.000000 10.000000 
Rope4_Seg08 0.000000 0.000000 0.000000 0.000000 0.000000 0.000000 10.000000 
Rope4_Seg09 0.000000 0.000000 0.000000 0.000000 0.000000 0.000000 10.000000 
L_rear_hand01 0.000000 0.000000 0.000000 0.000000 0.000000 0.000000 10.000000 
L_rear_hand02 0.000000 0.000000 0.000000 0.000000 0.000000 0.000000 10.000000 
L_rear_hand03 0.000000 0.000000 0.000000 0.000000 0.000000 0.000000 10.000000 
#Beginning of Data. Separated by tabs
#Fr	Tx	Ty	Tz	Rx	Ry	Rz	SF
[MASTER]
3 0.000000 0.000000 0.000000 0.001660 0.001660 0.001660 0.000000
4 0.000000 0.000000 0.000000 0.001660 0.001660 0.001660 0.000000
[root]
3 -16.577114 -186.314468 146.648315 -86.063965 -56.274864 -92.218452 237.683838
4 -16.720434 -171.831512 204.586670 -86.426750 -53.948200 -91.863083 267.696381
[chest]
3 -84.512650 -34.090519 0.000000 2.378865 -1.643955 -122.755753 91.129311
4 -84.512650 -34.090519 0.000000 2.364701 -1.710914 -122.705841 91.129311
[L_mid_tent01]
3 27.327888 22.161270 -250.099594 -17.836847 -0.738566 117.194176 252.562347
4 27.342062 22.153143 -250.190430 -18.377066 -2.279088 111.231125 252.653137
[R_mid_tent01]
3 23.228794 24.509907 226.238495 -174.011490 2.474278 108.036850 228.744751
4 23.228794 24.509907 226.238495 -173.293228 3.002391 103.040962 228.744751
[spine01]
3 -0.361383 -0.195265 0.000000 0.001947 0.001311 22.092159 0.410763
4 -0.361383 -0.195265 0.000000 0.001947 0.001311 22.077044 0.410763
[Bip01_Neck]
3 165.484543 71.581718 0.000119 175.896118 1.177290 24.871185 180.302734
4 165.484543 71.581718 0.000119 175.896118 1.177290 24.871185 180.302734
[L_humerus]
3 -13.983130 -135.272980 -120.471481 -92.049118 0.736383 -171.056473 181.680161
4 -13.983130 -135.272980 -120.471481 -92.309944 0.675996 -173.528580 181.680161
[R_humerus]
3 -13.983309 -135.273102 125.287651 103.000740 1.729733 -169.272232 184.909012
4 -13.983309 -135.273102 125.287651 103.000740 1.729733 -169.272232 184.909012
[weapon_bone]
3 235.964890 -300.705902 0.000000 0.000000 -89.951546 -128.212341 382.234833
4 235.964890 -300.705902 0.000000 0.000000 -89.951546 -128.212341 382.234833
[Bip01_Head]
3 102.819801 23.735441 5.410383 3.150732 3.423702 -20.839094 105.662453
4 102.819801 23.735451 5.410377 3.150732 3.423701 -20.839092 105.662460
[eye_left_bone]
3 -24.626970 125.451866 -64.772606 0.000000 -90.000000 -99.840431 143.318359
4 -24.626970 125.451866 -64.772606 0.000000 -90.000000 -99.840431 143.318359
[eye_right_bone]
3 -24.626970 125.451866 64.327362 0.000000 -89.960434 80.159386 143.117676
4 -24.626970 125.451866 64.327362 0.000000 -89.960434 80.159386 143.117676
[L_forearm]
3 322.776093 0.000000 -0.000119 0.000017 0.002347 -89.149834 322.776093
4 322.776093 0.000000 -0.000119 0.000017 0.002347 -89.149834 322.776093
[L_front_hand]
3 241.149185 -0.042021 -3.300071 -177.732254 -0.093358 -79.044281 241.171753
4 241.149185 -0.042021 -3.300071 -177.734344 -0.121950 -78.302948 241.171753
[L_weapon_bone]
3 156.086014 0.705940 0.000081 0.001850 0.001445 14.018232 156.087616
4 156.037018 1.058893 0.000122 0.001988 0.001247 25.808422 156.040604
[L_front_hand01_01]
3 86.095154 20.947098 -0.655860 0.405585 -0.442306 -4.620490 88.609184
4 86.095154 20.947098 -0.655860 0.405585 -0.442306 -4.620490 88.609184
[L_front_hand02_01]
3 86.935165 -11.437475 24.513514 116.959450 3.630817 1.495453 91.046425
4 86.935165 -11.437475 24.513514 116.959450 3.630817 1.495453 91.046425
[L_front_hand03_01]
3 86.637497 -14.123976 -20.424902 -118.420113 -4.656303 -0.152527 90.126129
4 86.637497 -14.123976 -20.424902 -118.420097 -4.656303 -0.152527 90.126129
[L_front_hand01_02]
3 71.020905 -0.000179 0.000030 0.000004 -0.000005 -8.379269 71.020905
4 71.020905 -0.000179 0.000030 0.000004 -0.000005 -8.379269 71.020905
[L_front_hand02_02]
3 71.020927 -0.000119 0.000060 -0.000005 -0.000004 -8.379259 71.020927
4 71.020927 -0.000119 0.000060 -0.000005 -0.000004 -8.379259 71.020927
[L_front_hand03_02]
3 71.020905 -0.000060 0.000060 0.000015 -0.000040 -8.379267 71.020905
4 71.020905 -0.000060 0.000060 0.000015 -0.000040 -8.379267 71.020905
[R_forearm]
3 322.776428 -0.000060 0.000030 0.212409 -0.024896 -84.747208 322.776428
4 322.776428 -0.000060 0.000030 0.213101 -0.012752 -87.522888 322.776428
[R_front_hand]
3 238.847015 -0.006795 2.210259 -1.683540 -0.387962 -91.724022 238.857239
4 238.847015 -0.006795 2.210259 -1.686849 -0.359732 -90.755630 238.857239
[R_weapon_bone]
3 155.664093 0.002503 -0.000030 0.003478 0.001205 -91.818146 155.664078
4 155.664093 0.002503 -0.000030 0.003468 0.001234 -92.778290 155.664078
[R_front_hand01_01]
3 87.624611 14.231146 22.918642 -116.960213 3.496675 -1.324139 91.683487
4 87.624611 14.231146 22.918642 -116.960213 3.496675 -1.324138 91.683487
[R_front_hand02_01]
3 89.356956 14.367283 -19.491137 118.419632 -4.257088 0.609827 92.579636
4 89.356956 14.367283 -19.491137 118.419647 -4.257089 0.609827 92.579636
[R_front_hand03_01]
3 87.286232 -22.307278 -0.143439 -0.387970 -0.231462 4.232001 90.091743
4 87.286232 -22.307278 -0.143439 -0.387970 -0.231462 4.232001 90.091743
[R_front_hand01_02]
3 71.020905 0.000060 0.000119 -0.000005 -0.000020 8.379271 71.020905
4 71.020905 0.000060 0.000119 -0.000005 -0.000020 8.379271 71.020905
[R_front_hand02_02]
3 71.020844 -0.000030 -0.000119 0.000000 -0.000021 8.379271 71.020836
4 71.020844 -0.000030 -0.000119 0.000000 -0.000021 8.379271 71.020836
[R_front_hand03_02]
3 71.020905 0.000000 0.000030 -0.000001 -0.000020 8.379275 71.020905
4 71.020905 0.000000 0.000030 -0.000001 -0.000020 8.379275 71.020905
[null_rope01_connect]
3 328.732483 0.000000 -0.000238 109.323570 -72.032143 -79.698837 328.732483
4 328.732483 0.000000 -0.000238 108.978653 -71.340851 -75.475533 328.732483
[Rope1_Seg01]
3 0.000072 -0.000074 0.000009 103.290886 5.396831 107.528587 0.000104
4 0.000070 -0.000073 0.000013 115.838219 -10.369927 132.401550 0.000102
[Rope1_Seg02]
3 139.999863 -0.000179 0.000000 17.923496 -18.395212 36.543861 139.999863
4 139.999863 -0.000179 0.000000 -28.650110 -36.806202 38.799370 139.999863
[Rope1_Seg03]
3 139.999924 0.000060 -0.000060 71.679993 13.080806 23.661379 139.999924
4 139.999924 0.000060 -0.000060 75.715607 4.942300 24.510035 139.999924
[Rope1_Seg04]
3 139.999924 -0.000060 -0.000119 17.607664 41.780106 -8.388408 139.999924
4 139.999924 -0.000060 -0.000119 32.126652 44.216415 1.256353 139.999924
[Rope1_Seg05]
3 139.999832 0.000119 -0.000060 0.406342 15.992977 -9.190689 139.999832
4 139.999832 0.000119 -0.000060 1.229915 16.096769 -8.799964 139.999832
[Rope1_Seg06]
3 139.999954 0.000119 -0.000060 -0.080747 6.708207 -4.026686 139.999954
4 139.999954 0.000119 -0.000060 0.175630 6.856154 -4.046468 139.999954
[Rope1_Seg07]
3 139.999985 0.000060 0.000000 -0.016767 1.604033 -0.963091 139.999985
4 139.999985 0.000060 0.000000 0.045134 1.748076 -1.041344 139.999985
[Rope1_Seg09]
3 121.602913 0.000119 -0.000089 -89.793175 -1.359789 0.847147 121.602913
4 121.602913 0.000119 -0.000089 -89.793175 -1.359789 0.847147 121.602913
[L_mid_hand01]
3 103.859421 1.038730 8.195221 104.352036 0.341479 -0.444583 104.187431
4 103.859421 1.038730 8.195221 104.352036 0.341479 -0.444583 104.187431
[L_mid_hand02]
3 105.572853 -4.139662 -10.864139 -135.608444 3.905687 -3.381056 106.211075
4 105.572853 -4.139662 -10.864139 -135.608444 3.905687 -3.381056 106.211075
[L_mid_hand03]
3 104.641464 17.579376 -3.913581 -18.761518 -0.324361 2.942913 106.179977
4 104.641464 17.579376 -3.913581 -18.761515 -0.324361 2.942912 106.179977
[null_rope02_connect]
3 328.732849 0.000179 -0.000119 127.329987 83.488228 -90.946281 328.732849
4 328.732849 0.000179 -0.000119 125.145226 82.656761 -95.822968 328.732849
[Rope2_Seg01]
3 0.000150 0.000114 -0.000009 -28.315544 33.923386 83.976051 0.000189
4 0.000149 0.000114 -0.000013 -43.361458 10.229385 65.735458 0.000189
[Rope2_Seg02]
3 139.999741 -0.000060 -0.000119 -15.199081 -45.719849 -33.153530 139.999756
4 139.999741 -0.000060 -0.000119 -9.227112 -32.871365 -11.018738 139.999756
[Rope2_Seg03]
3 140.000107 0.000030 0.000000 -17.473457 -12.756398 -19.126320 140.000107
4 140.000107 0.000030 0.000000 -18.588951 -17.350304 -19.362280 140.000107
[Rope2_Seg04]
3 139.999802 0.000000 -0.000060 -22.327848 -12.414536 -38.350021 139.999802
4 139.999802 0.000000 -0.000060 -22.459286 -9.759984 -39.141090 139.999802
[Rope2_Seg05]
3 139.999985 -0.000060 0.000119 -7.330432 2.786891 -21.390972 139.999985
4 139.999985 -0.000060 0.000119 -5.099757 2.409258 -14.922683 139.999985
[Rope2_Seg06]
3 139.999893 -0.000030 -0.000119 -1.732090 2.368593 -9.186451 139.999893
4 139.999893 -0.000030 -0.000119 -1.451902 1.571483 -6.288651 139.999893
[Rope2_Seg07]
3 139.999893 0.000060 -0.000060 -0.347151 0.755524 -2.632017 139.999893
4 139.999893 0.000060 -0.000060 -0.315505 0.417890 -1.522820 139.999893
[Rope2_Seg09]
3 121.338966 0.000089 -0.000060 33.793236 -1.359788 -0.847141 121.338966
4 121.338966 0.000089 -0.000060 33.793236 -1.359788 -0.847141 121.338966
[R_mid_hand01]
3 104.680779 11.144459 -10.335981 -47.384258 2.963522 5.452604 105.778534
4 104.680779 11.144459 -10.335981 -47.384258 2.963522 5.452604 105.778534
[R_mid_hand02]
3 104.070427 2.443552 8.231699 75.626297 -2.250001 1.111093 104.424065
4 104.070427 2.443552 8.231699 75.626297 -2.250001 1.111093 104.424065
[R_mid_hand03]
3 106.028137 -11.221827 -5.996406 -164.381927 2.495984 -6.140520 106.788818
4 106.028137 -11.221827 -5.996406 -164.381912 2.495983 -6.140520 106.788818
[spine02]
3 129.756927 0.001550 0.000119 -3.273633 -3.132856 42.150127 129.756927
4 129.756927 0.001550 0.000119 -3.055102 -3.263401 38.331291 129.756927
[spine03]
3 79.102013 0.002357 -0.133024 5.192534 7.993001 49.085266 79.102119
4 79.095215 0.003535 -0.199534 4.956104 7.565422 47.090065 79.095467
[pelvis]
3 169.435242 0.051022 0.000000 -7.241407 -2.865729 13.957331 169.435257
4 169.435242 0.051022 0.000000 -7.183175 -2.863274 13.865396 169.435257
[null_rope03_connect]
3 -1.257226 -2.466202 137.391083 138.926315 -84.437462 -119.260239 137.418976
4 -1.257226 -2.466202 137.391083 135.063782 -84.557129 -111.849510 137.418976
[null_rope04_connect]
3 -1.259640 -2.480268 -137.844437 138.926315 -84.437462 -119.260239 137.872513
4 -1.259640 -2.480268 -137.844437 135.063782 -84.557129 -111.849510 137.872513
[Rope3_Seg01]
3 -0.000047 0.000106 -0.000009 -165.721619 69.717972 -103.558563 0.000116
4 -0.000047 0.000101 -0.000009 33.997044 52.394894 116.219414 0.000112
[Rope3_Seg02]
3 139.999924 -0.000119 0.000060 -50.542252 -50.341263 54.925060 139.999924
4 139.999924 -0.000119 0.000060 -21.107567 -62.314289 23.098072 139.999924
[Rope3_Seg03]
3 139.999924 -0.000119 0.000119 -3.214463 -29.129339 6.150231 139.999924
4 139.999924 -0.000119 0.000119 6.717409 -36.502281 8.931952 139.999924
[Rope3_Seg04]
3 139.999924 0.000119 0.000000 3.836373 -44.803692 10.720623 139.999924
4 139.999924 0.000119 0.000000 3.472512 -9.348401 3.704877 139.999924
[Rope3_Seg05]
3 139.999924 -0.000238 0.000060 8.714816 -28.416677 10.709664 139.999924
4 139.999924 -0.000238 0.000060 1.583707 -3.369262 1.563314 139.999924
[Rope3_Seg06]
3 139.999893 -0.000119 -0.000060 3.306269 -6.396764 3.752219 139.999893
4 139.999893 -0.000119 -0.000060 1.367233 -2.123079 1.054752 139.999893
[Rope3_Seg07]
3 139.999771 0.000060 -0.000119 2.142683 -3.365676 2.254821 139.999771
4 139.999771 0.000060 -0.000119 1.188548 -1.480417 0.782669 139.999771
[Rope3_Seg08]
3 139.999985 -0.000060 0.000000 1.450069 -1.810577 1.314373 139.999985
4 139.999985 -0.000060 0.000000 0.976741 -0.932592 0.517989 139.999985
[Rope3_Seg09]
3 90.185997 -0.000179 -0.000060 89.793228 -1.359877 -0.847183 90.185997
4 90.185997 -0.000179 -0.000060 89.793228 -1.359877 -0.847183 90.185997
[R_rear_hand01]
3 103.366196 -6.073594 -10.757982 -156.049316 6.070418 -2.795868 104.101845
4 103.366196 -6.073594 -10.757982 -156.049316 6.070419 -2.795869 104.101845
[R_rear_hand02]
3 100.509819 12.039542 -7.992327 -38.708435 1.958051 5.461186 101.543350
4 100.509819 12.039542 -7.992327 -38.708435 1.958051 5.461186 101.543350
[R_rear_hand03]
3 101.539970 5.215704 5.435467 84.307625 -2.361032 4.099037 101.819031
4 101.539970 5.215704 5.435467 84.307625 -2.361032 4.099037 101.819031
[Rope4_Seg01]
3 -0.000002 0.000065 -0.000081 87.474472 72.980652 -72.043175 0.000104
4 -0.000002 0.000060 -0.000083 -151.248291 75.658203 39.318409 0.000102
[Rope4_Seg02]
3 139.999985 0.000060 0.000119 9.064075 16.973475 -50.029583 139.999985
4 139.999985 0.000060 0.000119 1.477691 7.965328 -83.208466 139.999985
[Rope4_Seg03]
3 139.999924 0.000000 -0.000238 -1.163336 2.450473 -49.595646 139.999924
4 139.999924 0.000000 -0.000238 -13.136798 8.667169 -33.961269 139.999924
[Rope4_Seg04]
3 139.999985 0.000000 0.000119 -11.249318 6.881486 -35.121269 139.999985
4 139.999985 0.000000 0.000119 -4.444248 5.470919 -10.774892 139.999985
[Rope4_Seg05]
3 139.999802 -0.000060 -0.000119 -8.069721 7.760289 -19.536350 139.999802
4 139.999802 -0.000060 -0.000119 -1.039045 1.622808 -2.911918 139.999802
[Rope4_Seg06]
3 139.999924 0.000000 0.000060 -2.128585 2.976205 -5.721593 139.999924
4 139.999924 0.000000 0.000060 -0.573715 1.046236 -1.799014 139.999924
[Rope4_Seg07]
3 139.999802 0.000000 0.000000 -1.120246 1.854852 -3.276675 139.999802
4 139.999802 0.000000 0.000000 -0.332829 0.739939 -1.246846 139.999802
[Rope4_Seg08]
3 139.999924 0.000000 0.000119 -2.148015 1.090014 -1.849144 139.999924
4 139.999924 0.000000 0.000119 -1.742598 0.474433 -0.787074 139.999924
[Rope4_Seg09]
3 90.185791 0.000060 0.000060 -135.617828 2.228885 0.850567 90.185791
4 90.185791 0.000060 0.000060 -135.617828 2.228885 0.850567 90.185791
[L_rear_hand01]
3 101.696655 -8.392275 -7.654577 -38.746338 0.246096 177.290207 102.329041
4 101.696655 -8.392275 -7.654577 -38.746342 0.246096 177.290207 102.329041
[L_rear_hand02]
3 102.726799 -1.568258 5.773216 84.315140 -1.142796 176.247437 102.900848
4 102.726799 -1.568258 5.773216 84.315140 -1.142796 176.247437 102.900848
[L_rear_hand03]
3 104.552910 9.721220 -10.420293 -155.747955 -4.630844 179.564758 105.519653
4 104.552910 9.721220 -10.420293 -155.747955 -4.630844 179.564758 105.519653
